# Blender v3.2.2 OBJ File: ''
# www.blender.org
mtllib bunny.mtl
o bun_zipper
v 0.001011 0.015496 0.546528
v -0.108573 -0.144948 0.099603
v 0.068161 -0.209511 0.103909
v -0.163648 0.102335 0.694140
v -0.309618 0.098252 0.459211
v 0.138581 -0.148535 0.474492
v 0.268331 -0.196453 0.389690
v 0.158761 -0.237157 0.113590
v 0.427543 0.059815 0.381681
v 0.003741 -0.126542 0.131359
v -0.283264 -0.239527 0.568680
v 0.393659 -0.111994 0.143566
v -0.262382 -0.220994 0.468932
v -0.020241 -0.093612 0.503468
v 0.110049 -0.101764 0.547139
v 0.033012 0.227258 0.375813
v 0.234130 -0.034062 0.573347
v 0.325060 -0.110782 0.493203
v 0.009223 0.111728 0.856230
v 0.149349 -0.260017 0.221325
v -0.031517 -0.175870 0.352258
v 0.269017 -0.205929 0.147746
v -0.392341 -0.034132 0.506796
v -0.091230 -0.169937 0.245785
v 0.219706 -0.246128 0.303758
v 0.027042 -0.251169 0.319524
v -0.353323 0.086624 0.553442
v -0.238976 -0.118955 -0.000000
v -0.137759 -0.186927 0.354948
v -0.371372 -0.021567 0.690732
v 0.009929 0.122154 0.514705
v -0.273272 0.126560 0.644790
v 0.174256 0.108887 0.561553
v 0.041599 -0.178582 0.394715
v -0.274893 -0.138256 0.425569
v -0.016900 0.201331 0.442760
v -0.132905 -0.113751 0.483294
v 0.258033 -0.175173 0.082096
v 0.085817 0.242223 0.889705
v -0.151507 -0.089530 0.622434
v -0.136066 0.011389 0.707827
v 0.497389 -0.037264 0.088439
v -0.298151 0.346398 0.825228
v 0.105374 0.145633 0.756784
v 0.491505 -0.073809 0.212063
v -0.200389 -0.189982 0.521523
v 0.310366 -0.206564 0.280709
v 0.404424 -0.111612 0.349658
v -0.245005 0.412161 0.867245
v 0.451299 0.100444 0.077509
v 0.300331 0.224919 0.102969
v -0.194864 0.305832 0.757608
v -0.124850 0.121243 0.552334
v -0.122168 0.060627 0.632666
v 0.513426 0.073236 0.204598
v 0.202018 0.187747 0.491554
v -0.367642 -0.020533 0.367035
v -0.380962 -0.169462 0.480416
v -0.002451 -0.247471 -0.000000
v -0.331787 -0.058134 0.452809
v 0.372371 0.186574 0.306323
v -0.129204 -0.028352 0.125668
v -0.314622 0.140775 0.340617
v -0.165265 -0.206158 -0.000000
v -0.185253 0.449835 0.821268
v -0.172995 -0.104104 0.714876
v -0.089806 -0.015151 0.558570
v -0.206252 0.138198 0.502948
v -0.234492 0.074008 0.721197
v 0.433562 -0.051613 0.226833
v -0.288253 0.096896 0.696687
v -0.276338 0.092830 -0.000000
v -0.320979 -0.170655 0.647848
v -0.286172 -0.091172 0.227144
v -0.167968 0.202255 0.405256
v 0.114899 0.206730 0.780404
v -0.180572 0.028422 0.123275
v -0.118291 0.190154 -0.000000
v -0.238117 0.380140 0.697406
v -0.192110 0.062719 0.098964
v -0.363451 -0.016879 0.608941
v -0.114220 0.102929 0.791571
v 0.014729 0.241246 0.103731
v -0.021630 0.138642 0.112990
v -0.097600 0.142718 0.080337
v 0.358594 0.112453 0.481130
v 0.435663 0.059078 0.227817
v 0.192420 0.272783 0.355053
v -0.039150 0.263220 -0.000000
v -0.327063 0.093939 0.265018
v 0.253314 0.208980 0.395172
v -0.050015 0.214779 0.302992
v -0.347587 -0.044984 0.290521
v -0.196987 0.115418 0.643608
v 0.245164 0.206893 -0.000000
v 0.063087 0.244477 0.063121
v 0.383876 0.129665 0.132459
v 0.169906 0.261827 0.100173
v 0.057699 0.304858 0.186945
v -0.144183 0.144201 0.167667
v 0.234813 0.268377 0.217288
v -0.198363 0.195179 0.249208
v 0.047152 0.316802 0.321427
v 0.261177 0.060390 -0.000000
v 0.352440 -0.035713 -0.000000
v 0.269905 -0.160667 -0.000000
v -0.206026 -0.034662 -0.000000
v 0.416531 -0.105484 0.079575
v -0.134530 -0.113714 0.172196
v -0.062461 -0.163428 -0.000000
v -0.221436 -0.169834 0.268487
v -0.242494 -0.007754 0.160502
v -0.170517 -0.036975 0.150881
vn -0.8989 0.1101 0.4240
vn -0.1568 -0.0890 0.9836
vn 0.3277 0.0797 0.9414
vn -0.6334 0.1211 -0.7643
vn -0.3386 0.1913 0.9213
vn -0.1064 0.0374 0.9936
vn 0.0342 -0.7459 0.6652
vn 0.9545 0.2525 0.1587
vn 0.4868 -0.8714 -0.0600
vn 0.3170 -0.9330 -0.1703
vn -0.0294 -0.4149 -0.9094
vn 0.1943 0.9807 -0.0235
vn 0.5187 0.1063 -0.8483
vn 0.1082 -0.8160 0.5678
vn 0.1824 -0.9725 0.1446
vn -0.0521 -0.8667 0.4961
vn -0.1395 -0.1246 0.9824
vn -0.5065 0.5387 -0.6733
vn -0.0297 -0.9857 -0.1661
vn -0.6405 -0.4498 0.6224
vn -0.9560 0.0900 -0.2793
vn 0.3779 -0.6601 -0.6492
vn -0.5337 -0.8007 -0.2722
vn 0.0670 -0.8679 0.4923
vn -0.0371 -0.5961 0.8020
vn 0.1001 -0.9887 -0.1112
vn 0.3758 0.2826 -0.8825
vn 0.1032 -0.8770 0.4694
vn 0.2475 -0.9497 -0.1917
vn 0.2087 -0.9610 -0.1813
vn 0.3393 -0.9313 -0.1327
vn -0.3051 -0.8268 0.4725
vn 0.7851 -0.2248 0.5771
vn -0.8157 0.3189 0.4826
vn -0.1073 0.7876 -0.6068
vn -0.2250 -0.8257 0.5172
vn -0.3203 -0.2931 0.9008
vn -0.1360 -0.7699 0.6235
vn 0.3461 -0.9378 0.0283
vn -0.1423 -0.8568 0.4957
vn 0.1406 -0.9550 0.2612
vn -0.2525 -0.9399 -0.2297
vn -0.0452 -0.7573 0.6515
vn -0.2628 -0.9389 -0.2222
vn 0.8603 -0.5079 -0.0440
vn 0.6959 -0.2480 -0.6740
vn 0.6240 -0.6837 0.3783
vn 0.7379 -0.6717 0.0656
vn 0.8871 0.2670 -0.3765
vn 0.4541 -0.8863 -0.0909
vn 0.8788 0.1426 -0.4553
vn -0.9483 0.2170 0.2316
vn 0.3713 -0.9207 -0.1199
vn 0.7365 -0.4865 -0.4699
vn 0.7817 -0.5883 0.2069
vn 0.9751 -0.1601 0.1531
vn 0.6453 -0.7404 -0.1882
vn 0.5663 -0.7715 0.2900
vn 0.8318 -0.5172 0.2012
vn 0.1593 -0.9759 -0.1494
vn -0.8568 0.0736 0.5104
vn 0.6923 -0.5315 0.4881
vn 0.7231 -0.6898 -0.0365
vn 0.5873 -0.7876 -0.1864
vn 0.5672 -0.7597 0.3180
vn 0.5056 -0.7616 -0.4054
vn 0.4584 -0.8770 0.1442
vn 0.8093 -0.1959 0.5538
vn 0.5340 -0.7278 -0.4303
vn 0.3689 -0.8165 -0.4442
vn -0.9498 -0.1020 -0.2958
vn -0.3759 0.2146 0.9015
vn 0.9195 -0.2094 0.3327
vn 0.8704 0.0951 -0.4830
vn 0.8060 0.5195 0.2838
vn -0.8166 0.5753 -0.0461
vn 0.4819 0.7475 0.4573
vn 0.9057 0.4214 0.0458
vn 0.8997 0.2168 -0.3788
vn -0.9794 0.1834 -0.0843
vn -0.8792 0.2891 0.3787
vn 0.6110 0.3104 -0.7283
vn 0.7660 0.6242 -0.1536
vn 0.8638 0.4930 -0.1042
vn -0.7763 -0.3913 0.4942
vn 0.3849 0.2349 0.8926
vn 0.8562 -0.2041 0.4746
vn 0.9794 -0.1950 0.0534
vn 0.9058 -0.2681 0.3281
vn 0.9984 -0.0194 0.0528
vn 0.9891 -0.1473 0.0035
vn 0.9411 -0.2904 0.1730
vn -0.7250 -0.0193 -0.6885
vn 0.2512 0.0117 0.9679
vn -0.3418 -0.5886 0.7326
vn 0.2884 -0.0140 0.9574
vn -0.2203 -0.3925 0.8930
vn 0.2511 -0.3973 0.8827
vn 0.7964 -0.0873 0.5984
vn -0.1413 0.1053 0.9843
vn 0.6973 -0.3282 0.6372
vn 0.0495 0.9987 0.0095
vn -0.2538 -0.3456 0.9034
vn 0.6344 -0.0536 0.7711
vn -0.0409 -0.7149 0.6980
vn 0.1069 0.0728 0.9916
vn -0.5169 -0.4082 0.7525
vn -0.9511 0.3071 -0.0337
vn 0.1688 -0.6093 0.7748
vn -0.5873 -0.4964 0.6393
vn -0.4085 -0.4171 -0.8119
vn -0.4133 -0.6138 0.6726
vn -0.7838 -0.6209 -0.0131
vn -0.2903 -0.9524 0.0927
vn -0.7859 -0.5612 -0.2597
vn -0.5347 -0.6090 0.5858
vn 0.3624 -0.8718 0.3295
vn -0.1306 0.9134 -0.3855
vn -0.0715 -0.7321 0.6774
vn -0.4062 -0.8794 -0.2484
vn -0.8140 -0.5256 -0.2473
vn -0.8027 -0.5382 -0.2571
vn -0.7020 -0.6681 0.2467
vn -0.7514 -0.4144 0.5134
vn -0.7838 -0.6210 -0.0070
vn -0.8010 -0.5941 0.0744
vn -0.8736 -0.1981 0.4444
vn -0.2805 0.9468 0.1576
vn -0.7084 0.6959 -0.1174
vn -0.7087 -0.6983 -0.1008
vn -0.6188 -0.5821 -0.5275
vn -0.4517 0.6706 0.5885
vn -0.7166 0.6795 -0.1572
vn -0.8704 -0.3831 0.3091
vn -0.9059 0.2028 -0.3719
vn -0.9470 -0.1363 0.2909
vn -0.2397 0.2959 0.9246
vn -0.7218 0.6768 -0.1446
vn -0.6177 -0.2741 0.7371
vn -0.6190 0.4768 0.6241
vn -0.9177 0.3019 -0.2581
vn -0.9690 0.0816 -0.2331
vn 0.4371 0.8152 0.3801
vn -0.6248 0.5912 0.5100
vn -0.1185 0.6822 0.7215
vn -0.4661 0.0469 0.8835
vn -0.9301 0.3316 0.1581
vn -0.8471 0.4061 -0.3428
vn -0.6423 0.6958 0.3216
vn 0.0142 0.2013 -0.9794
vn -0.0499 0.4971 0.8663
vn -0.2166 0.9009 0.3761
vn -0.6159 0.7693 -0.1700
vn 0.4184 0.8144 0.4021
vn -0.1304 0.8518 0.5074
vn -0.1648 0.6321 0.7571
vn 0.5614 0.6695 0.4864
vn -0.1203 0.8542 0.5058
vn -0.0315 0.5225 0.8521
vn 0.3214 0.5628 0.7615
vn 0.1891 0.6947 0.6940
vn -0.4421 0.7179 0.5378
vn 0.2583 0.2563 0.9314
vn -0.4632 0.8134 0.3518
vn -0.3577 0.9292 -0.0928
vn -0.3440 0.9380 -0.0438
vn 0.0272 0.8105 0.5852
vn 0.3987 0.9171 0.0015
vn 0.1126 0.9820 0.1516
vn -0.6361 0.7346 0.2363
vn 0.0659 0.8652 -0.4971
vn -0.4814 0.8184 0.3138
vn -0.4000 0.9158 0.0364
vn 0.0036 0.8847 -0.4661
vn 0.4399 -0.8626 0.2497
vn 0.5226 0.8522 -0.0244
vn 0.4537 0.8842 0.1113
vn 0.2707 0.9411 -0.2026
vn 0.1812 0.5802 -0.7941
vn 0.1186 0.9653 -0.2325
vn 0.2279 0.9569 -0.1798
vn 0.2779 0.9590 0.0548
vn -0.6438 0.6779 -0.3549
vn 0.2127 0.9746 -0.0699
vn 0.5669 0.8071 -0.1651
vn 0.0588 0.9679 0.2445
vn -0.6048 0.6551 0.4529
vn 0.0059 0.8989 -0.4381
vn -0.0188 0.9948 0.1002
vn 0.0760 0.9827 0.1687
vn 0.1452 0.9781 0.1488
vn -0.2296 0.9061 -0.3553
vn -0.4032 0.8155 -0.4152
vn -0.6062 0.7169 -0.3444
vn -0.1235 0.9921 -0.0209
vn 0.3076 0.2921 -0.9055
vn 0.3007 -0.9434 0.1403
vn 0.4621 -0.4483 -0.7652
vn -0.6414 0.0945 -0.7614
vn -0.4546 -0.0200 -0.8905
vn -0.8019 -0.0554 -0.5949
vn -0.2882 -0.4783 -0.8295
vn -0.7072 -0.6813 -0.1888
vn -0.5137 0.3689 -0.7746
vn -0.6376 0.4423 -0.6308
vn -0.0195 0.9371 0.3484
vn -0.3622 -0.4586 -0.8115
vn -0.2822 -0.4096 -0.8675
vn -0.2702 -0.3732 -0.8875
vn -0.3437 -0.6427 -0.6847
vn -0.0994 -0.8180 -0.5665
vn -0.4123 -0.4074 -0.8149
usemtl None
s off
f 60//1 5//1 57//1
f 69//2 30//2 66//2
f 69//3 66//3 4//3
f 5//4 60//4 23//4
f 30//5 69//5 71//5
f 1//6 17//6 33//6
f 11//7 66//7 73//7
f 67//8 53//8 54//8
f 13//9 46//9 11//9
f 22//10 20//10 8//10
f 38//11 8//11 3//11
f 89//12 96//12 95//12
f 105//13 50//13 42//13
f 18//14 15//14 6//14
f 34//15 18//15 6//15
f 29//16 37//16 35//16
f 17//17 1//17 15//17
f 90//18 102//18 100//18
f 111//19 24//19 29//19
f 20//20 25//20 7//20
f 93//21 57//21 90//21
f 35//22 37//22 46//22
f 105//23 108//23 12//23
f 14//24 37//24 29//24
f 14//25 67//25 37//25
f 24//26 21//26 29//26
f 76//27 44//27 54//27
f 21//28 14//28 29//28
f 21//29 24//29 2//29
f 10//30 21//30 2//30
f 22//31 25//31 20//31
f 34//32 14//32 21//32
f 52//33 49//33 69//33
f 28//34 62//34 107//34
f 54//35 4//35 76//35
f 15//36 14//36 34//36
f 14//37 15//37 1//37
f 45//38 70//38 12//38
f 45//39 12//39 108//39
f 15//40 34//40 6//40
f 20//41 7//41 26//41
f 3//42 20//42 26//42
f 7//43 18//43 34//43
f 20//44 3//44 8//44
f 12//45 70//45 48//45
f 46//46 13//46 35//46
f 46//47 40//47 11//47
f 40//48 66//48 11//48
f 50//49 55//49 42//49
f 106//50 12//50 38//50
f 79//51 65//51 52//51
f 23//52 81//52 27//52
f 25//53 22//53 47//53
f 105//54 12//54 106//54
f 37//55 40//55 46//55
f 70//56 9//56 48//56
f 108//57 42//57 45//57
f 47//58 48//58 7//58
f 37//59 67//59 40//59
f 38//60 3//60 106//60
f 80//61 77//61 100//61
f 39//62 19//62 44//62
f 12//63 48//63 47//63
f 12//64 47//64 22//64
f 48//65 18//65 7//65
f 54//66 44//66 41//66
f 44//67 19//67 41//67
f 54//68 40//68 67//68
f 38//69 12//69 22//69
f 22//70 8//70 38//70
f 2//71 109//71 62//71
f 84//72 83//72 85//72
f 52//73 69//73 94//73
f 95//74 51//74 104//74
f 61//75 86//75 9//75
f 81//76 30//76 71//76
f 91//77 61//77 88//77
f 61//78 9//78 87//78
f 94//79 79//79 52//79
f 81//80 58//80 30//80
f 81//81 71//81 27//81
f 51//82 97//82 104//82
f 51//83 61//83 97//83
f 97//84 61//84 87//84
f 80//85 107//85 62//85
f 33//86 17//86 86//86
f 9//87 18//87 48//87
f 54//88 41//88 40//88
f 39//89 44//89 76//89
f 87//90 9//90 70//90
f 42//91 55//91 45//91
f 66//92 40//92 41//92
f 74//93 93//93 90//93
f 70//94 45//94 55//94
f 41//95 19//95 82//95
f 87//96 70//96 55//96
f 49//97 43//97 69//97
f 1//98 67//98 14//98
f 9//99 86//99 18//99
f 4//100 66//100 41//100
f 52//101 65//101 49//101
f 84//102 85//102 100//102
f 30//103 73//103 66//103
f 86//104 17//104 18//104
f 34//105 26//105 7//105
f 53//106 67//106 1//106
f 71//107 69//107 43//107
f 90//108 57//108 63//108
f 17//109 15//109 18//109
f 2//110 28//110 64//110
f 62//111 109//111 113//111
f 26//112 34//112 21//112
f 109//113 2//113 24//113
f 35//114 111//114 29//114
f 110//115 59//115 2//115
f 10//116 59//116 3//116
f 64//117 110//117 2//117
f 84//118 100//118 92//118
f 59//119 10//119 2//119
f 58//120 13//120 11//120
f 10//121 26//121 21//121
f 10//122 3//122 26//122
f 11//123 73//123 58//123
f 107//124 80//124 72//124
f 93//125 35//125 57//125
f 35//126 60//126 57//126
f 4//127 41//127 82//127
f 16//128 92//128 36//128
f 92//129 103//129 99//129
f 111//130 35//130 93//130
f 80//131 62//131 77//131
f 80//132 85//132 72//132
f 79//133 43//133 49//133
f 58//134 73//134 30//134
f 32//135 43//135 79//135
f 23//136 58//136 81//136
f 31//137 1//137 33//137
f 83//138 92//138 99//138
f 28//139 2//139 62//139
f 16//140 103//140 92//140
f 83//141 84//141 92//141
f 32//142 71//142 43//142
f 86//143 61//143 91//143
f 85//144 83//144 78//144
f 56//145 36//145 33//145
f 19//146 39//146 82//146
f 57//147 5//147 63//147
f 5//148 23//148 27//148
f 4//149 82//149 39//149
f 32//150 79//150 94//150
f 91//151 88//151 103//151
f 4//152 94//152 69//152
f 49//153 65//153 79//153
f 86//154 91//154 56//154
f 53//155 75//155 68//155
f 31//156 33//156 36//156
f 54//157 53//157 94//157
f 36//158 75//158 53//158
f 16//159 91//159 103//159
f 33//160 86//160 56//160
f 31//161 36//161 53//161
f 78//162 72//162 85//162
f 1//163 31//163 53//163
f 75//164 5//164 68//164
f 27//165 32//165 68//165
f 5//166 27//166 68//166
f 55//167 97//167 87//167
f 97//168 55//168 50//168
f 53//169 68//169 94//169
f 27//170 71//170 32//170
f 100//171 102//171 92//171
f 63//172 5//172 75//172
f 63//173 75//173 102//173
f 50//174 104//174 97//174
f 25//175 47//175 7//175
f 51//176 101//176 61//176
f 101//177 88//177 61//177
f 51//178 98//178 101//178
f 51//179 96//179 98//179
f 96//180 51//180 95//180
f 98//181 99//181 101//181
f 103//182 88//182 101//182
f 80//183 100//183 85//183
f 101//184 99//184 103//184
f 94//185 4//185 54//185
f 91//186 16//186 56//186
f 83//187 89//187 78//187
f 96//188 99//188 98//188
f 92//189 75//189 36//189
f 89//190 83//190 96//190
f 68//191 32//191 94//191
f 4//192 39//192 76//192
f 83//193 99//193 96//193
f 90//194 63//194 102//194
f 102//195 75//195 92//195
f 50//196 105//196 104//196
f 3//197 59//197 106//197
f 108//198 105//198 42//198
f 60//199 58//199 23//199
f 60//200 35//200 58//200
f 90//201 112//201 74//201
f 13//202 58//202 35//202
f 111//203 93//203 74//203
f 90//204 100//204 112//204
f 77//205 112//205 100//205
f 36//206 56//206 16//206
f 112//207 109//207 74//207
f 77//208 113//208 112//208
f 113//209 109//209 112//209
f 109//210 111//210 74//210
f 109//211 24//211 111//211
f 113//212 77//212 62//212
